<svg width="613" height="411" viewBox="0 0 613 411" fill="none" xmlns="http://www.w3.org/2000/svg">
<g clip-path="url(#clip0_58_594)">
<path d="M126.927 250.705C132.459 252.342 142.053 253.355 153.119 253.95C183.208 255.572 224.201 254.154 224.201 254.154C224.201 254.154 435.651 257.78 588.999 182.496C588.999 182.496 611.134 168.961 588.802 154.171C585.368 151.968 581.747 150.071 577.98 148.504L577.703 148.261C575.137 146.183 572.39 144.339 569.496 142.75C560.983 138.003 546.783 132.647 530.186 136.589L120.622 230.816C120.622 230.816 106.343 244.596 126.927 250.705Z" fill="#00095E"/>
<path d="M207.412 214.913L116.704 159.079L78.9433 168.202L120.621 230.816C120.621 230.816 207.13 225.822 207.412 214.913Z" fill="#00095E"/>
<path d="M423.134 163.182L247.326 126.085L219.885 133.735L300.17 163.711L326.333 189.395L423.134 163.182Z" fill="#00095E"/>
<path d="M153.118 253.95C183.207 255.572 224.2 254.154 224.2 254.154C224.2 254.154 435.65 257.78 588.999 182.496C588.999 182.496 611.134 168.961 588.802 154.171L588.75 154.475C588.75 154.475 556.252 179.716 395.016 209.605L153.118 253.95Z" fill="#F9A826"/>
<path d="M180.778 250.798L105.677 287.408L86.1475 286.531L130.025 248.773C130.025 248.773 185.077 233.179 180.778 250.798Z" fill="#00095E"/>
<path d="M560.987 159.685C564.673 159.503 572.703 152.769 577.675 148.263C575.109 146.185 572.362 144.34 569.468 142.752C565.452 146.278 558.274 152.028 554.075 152.099C548.017 152.247 555.436 159.95 560.987 159.685Z" fill="#F9A826"/>
<path d="M221.873 357.574L271.594 356.911L404.726 253.741L429.439 234.585L441.442 225.277C416.565 206.91 322.217 240.702 322.217 240.702C320.479 242.378 320.063 245 320.333 247.849C320.845 253.183 323.767 259.292 324.883 261.486C325.152 262.024 325.315 262.308 325.315 262.308L221.873 357.574Z" fill="#00095E"/>
<path d="M381.853 298.102L390.807 302.98L384.976 293.846C386.373 292.571 388.155 291.799 390.04 291.651L390.178 291.642C390.775 291.615 391.368 291.531 391.949 291.392L394.979 293.049L393.586 290.862C395.598 290.003 397.289 288.531 398.417 286.655L403.838 289.633L400.16 283.862C402.96 280.005 406.915 277.495 411.432 277.198C416.844 276.842 421.876 279.745 425.319 284.564C426.341 286.007 427.727 287.155 429.335 287.888C430.944 288.622 432.718 288.916 434.477 288.74L434.765 288.721C440.741 288.328 446.029 294.787 446.579 303.152C447.129 311.518 442.732 318.613 436.756 319.006C435.443 319.089 434.129 318.849 432.929 318.308C430.829 317.454 428.57 317.066 426.306 317.171C424.042 317.275 421.828 317.87 419.816 318.915C418.115 319.812 416.245 320.341 414.327 320.467C412.409 320.594 410.485 320.314 408.682 319.647C406.569 318.891 404.318 318.598 402.083 318.788C399.847 318.978 397.678 319.647 395.723 320.749C394.611 321.427 393.352 321.828 392.052 321.918C386.076 322.311 380.788 315.852 380.238 307.487C379.983 304.273 380.538 301.046 381.853 298.102Z" fill="#F2F2F2"/>
<path opacity="0.03" d="M399.48 319.196C402.563 318.4 405.813 318.538 408.817 319.593C410.619 320.263 412.542 320.543 414.46 320.417C416.378 320.291 418.247 319.761 419.946 318.862C421.957 317.815 424.171 317.218 426.436 317.114C428.7 317.009 430.96 317.398 433.059 318.255C434.262 318.794 435.576 319.033 436.892 318.953C442.199 318.604 446.264 312.958 446.717 305.838C445.604 305.136 444.639 304.224 443.875 303.152C440.433 298.339 435.401 295.436 429.988 295.792C424.576 296.148 420.013 299.615 417.233 304.799C416.405 306.361 415.187 307.681 413.698 308.633C412.209 309.585 410.499 310.135 408.735 310.231L408.596 310.24C404.372 310.506 400.935 314.133 399.48 319.196Z" fill="#00095E"/>
<path d="M138.687 306.869L147.642 311.747L141.811 302.613C143.208 301.338 144.99 300.566 146.874 300.418L147.013 300.409C147.61 300.382 148.203 300.298 148.784 300.159L151.813 301.816L150.42 299.629C152.433 298.77 154.123 297.298 155.252 295.422L160.672 298.4L156.995 292.629C159.795 288.772 163.749 286.262 168.266 285.965C173.678 285.609 178.711 288.512 182.153 293.331C183.175 294.775 184.561 295.922 186.17 296.655C187.778 297.389 189.553 297.683 191.312 297.507L191.599 297.488C197.575 297.095 202.864 303.554 203.414 311.919C203.964 320.285 199.567 327.38 193.591 327.773C192.277 327.856 190.964 327.616 189.764 327.075C187.664 326.221 185.404 325.833 183.14 325.938C180.876 326.042 178.662 326.637 176.65 327.682C174.95 328.579 173.08 329.108 171.161 329.234C169.243 329.361 167.32 329.081 165.516 328.414C163.403 327.658 161.153 327.365 158.917 327.555C156.681 327.745 154.513 328.414 152.558 329.516C151.445 330.194 150.186 330.595 148.887 330.685C142.911 331.078 137.622 324.619 137.072 316.254C136.818 313.04 137.373 309.813 138.687 306.869Z" fill="#F2F2F2"/>
<path opacity="0.03" d="M156.315 327.963C159.397 327.167 162.647 327.305 165.652 328.36C167.454 329.03 169.376 329.31 171.294 329.184C173.212 329.058 175.081 328.528 176.78 327.629C178.791 326.582 181.006 325.985 183.27 325.881C185.534 325.776 187.794 326.165 189.893 327.022C191.096 327.561 192.411 327.8 193.726 327.72C199.033 327.371 203.098 321.725 203.552 314.605C202.439 313.903 201.474 312.991 200.71 311.919C197.268 307.106 192.235 304.203 186.823 304.559C181.411 304.915 176.847 308.382 174.068 313.566C173.237 315.132 172.015 316.456 170.521 317.408C169.026 318.36 167.311 318.909 165.541 319L165.403 319.009C161.207 319.273 157.769 322.9 156.315 327.963Z" fill="#00095E"/>
<path d="M126.754 125.401L135.709 130.28L129.878 121.145C131.275 119.871 133.057 119.099 134.941 118.951L135.08 118.942C135.677 118.914 136.27 118.831 136.851 118.692L139.88 120.349L138.487 118.162C140.5 117.303 142.19 115.831 143.319 113.955L148.739 116.932L145.062 111.162C147.862 107.305 151.816 104.795 156.333 104.498C161.745 104.142 166.778 107.045 170.22 111.864C171.242 113.307 172.628 114.454 174.237 115.188C175.845 115.921 177.62 116.215 179.379 116.04L179.666 116.021C185.642 115.628 190.931 122.087 191.481 130.452C192.031 138.817 187.634 145.913 181.658 146.306C180.344 146.388 179.03 146.149 177.831 145.608C175.731 144.754 173.471 144.366 171.207 144.47C168.943 144.575 166.729 145.17 164.717 146.214C163.019 147.116 161.15 147.65 159.232 147.781C157.314 147.912 155.39 147.637 153.585 146.974C151.472 146.218 149.222 145.925 146.986 146.116C144.75 146.306 142.581 146.974 140.627 148.076C139.514 148.754 138.255 149.155 136.956 149.246C130.98 149.639 125.691 143.18 125.141 134.815C124.881 131.591 125.436 128.354 126.754 125.401Z" fill="#F2F2F2"/>
<path opacity="0.03" d="M144.381 146.496C147.464 145.7 150.714 145.838 153.719 146.893C155.521 147.562 157.443 147.843 159.361 147.717C161.279 147.591 163.148 147.061 164.847 146.161C166.858 145.115 169.073 144.518 171.337 144.413C173.601 144.309 175.861 144.698 177.96 145.555C179.163 146.094 180.478 146.333 181.793 146.253C187.1 145.904 191.165 140.258 191.618 133.138C190.506 132.436 189.541 131.524 188.777 130.452C185.334 125.639 180.302 122.736 174.89 123.092C169.478 123.448 164.914 126.915 162.135 132.099C161.304 133.665 160.082 134.988 158.587 135.941C157.093 136.893 155.378 137.441 153.608 137.532L153.47 137.541C149.273 137.806 145.836 141.433 144.381 146.496Z" fill="#00095E"/>
<path d="M480.395 82.4818L484.858 84.9166L481.949 80.3626C482.644 79.7237 483.534 79.3366 484.475 79.263L484.541 79.2587C484.839 79.2421 485.136 79.2004 485.427 79.1337L486.936 79.9569L486.244 78.8911C487.248 78.4632 488.091 77.7291 488.654 76.7934L491.356 78.2827L489.502 75.4097C490.132 74.4717 490.965 73.6865 491.937 73.1111C492.91 72.5358 493.998 72.1849 495.124 72.0839C497.822 71.9065 500.332 73.3528 502.028 75.7584C502.538 76.4804 503.231 77.0537 504.036 77.4197C504.84 77.7856 505.728 77.931 506.607 77.841L506.75 77.8315C509.73 77.6356 512.369 80.8626 512.643 85.0342C512.917 89.2057 510.724 92.7449 507.744 92.9409C507.089 92.9819 506.433 92.8629 505.834 92.5942C504.786 92.1666 503.659 91.9722 502.529 92.0244C501.399 92.0766 500.294 92.3743 499.291 92.8967C498.446 93.341 497.517 93.6029 496.565 93.6655C495.613 93.7282 494.658 93.5901 493.762 93.2602C492.708 92.8826 491.585 92.7366 490.47 92.832C489.354 92.9274 488.272 93.262 487.297 93.8132C486.742 94.1484 486.116 94.3476 485.47 94.3945C482.49 94.5905 479.852 91.369 479.578 87.1974C479.45 85.5818 479.731 83.9602 480.395 82.4818Z" fill="#F2F2F2"/>
<path opacity="0.03" d="M489.187 93.0054C490.726 92.6044 492.349 92.6737 493.848 93.2046C494.744 93.5322 495.698 93.67 496.65 93.6093C497.613 93.5457 498.551 93.2775 499.402 92.8227C500.407 92.3021 501.512 92.006 502.641 91.9547C503.771 91.9035 504.899 92.0983 505.946 92.5257C506.543 92.7945 507.197 92.9136 507.851 92.8728C510.499 92.6986 512.529 89.8814 512.756 86.3325C512.203 85.9794 511.721 85.5247 511.336 84.9923C509.623 82.5879 507.113 81.1416 504.431 81.3179C501.75 81.4942 499.461 83.2395 498.064 85.815C497.649 86.5976 497.038 87.2587 496.291 87.7336C495.543 88.2084 494.685 88.4806 493.801 88.5236L493.729 88.5283C491.645 88.6654 489.915 90.4794 489.187 93.0054Z" fill="#00095E"/>
<path d="M116.732 378.107L121.196 380.542L118.287 375.988C118.982 375.349 119.871 374.962 120.813 374.888L120.879 374.884C121.177 374.868 121.474 374.826 121.765 374.759L123.274 375.582L122.582 374.517C123.586 374.089 124.429 373.355 124.992 372.419L127.694 373.908L125.839 371.035C126.47 370.097 127.302 369.312 128.275 368.737C129.248 368.161 130.336 367.81 131.462 367.709C134.159 367.532 136.67 368.978 138.366 371.384C138.876 372.106 139.569 372.679 140.374 373.045C141.178 373.411 142.066 373.556 142.945 373.466L143.088 373.457C146.068 373.261 148.707 376.488 148.981 380.66C149.255 384.831 147.062 388.37 144.082 388.566C143.426 388.607 142.771 388.488 142.171 388.22C141.124 387.792 139.996 387.598 138.867 387.65C137.737 387.702 136.632 388 135.629 388.522C134.784 388.966 133.855 389.228 132.903 389.291C131.951 389.354 130.996 389.216 130.1 388.886C129.046 388.508 127.923 388.362 126.807 388.457C125.692 388.553 124.61 388.888 123.635 389.439C123.08 389.774 122.454 389.973 121.808 390.02C118.828 390.216 116.19 386.994 115.915 382.823C115.788 381.207 116.069 379.586 116.732 378.107Z" fill="#F2F2F2"/>
<path opacity="0.03" d="M125.525 388.631C127.064 388.23 128.687 388.299 130.186 388.83C131.082 389.158 132.036 389.295 132.988 389.235C133.951 389.171 134.889 388.903 135.74 388.448C136.744 387.928 137.85 387.631 138.979 387.58C140.109 387.529 141.236 387.724 142.284 388.151C142.881 388.42 143.535 388.539 144.189 388.498C146.837 388.324 148.867 385.507 149.094 381.958C148.54 381.605 148.058 381.15 147.674 380.618C145.961 378.213 143.45 376.767 140.769 376.943C138.088 377.12 135.799 378.865 134.402 381.44C133.987 382.223 133.376 382.884 132.628 383.359C131.881 383.834 131.023 384.106 130.139 384.149L130.067 384.154C127.983 384.291 126.253 386.105 125.525 388.631Z" fill="#00095E"/>
<path d="M515.716 366.317L520.179 368.752L517.27 364.198C517.966 363.559 518.855 363.172 519.797 363.098L519.863 363.094C520.161 363.077 520.457 363.036 520.749 362.969L522.257 363.792L521.565 362.726C522.57 362.298 523.413 361.564 523.976 360.629L526.678 362.118L524.823 359.245C525.454 358.307 526.286 357.522 527.259 356.946C528.232 356.371 529.32 356.02 530.446 355.919C533.143 355.742 535.654 357.188 537.35 359.594C537.86 360.316 538.553 360.889 539.358 361.255C540.162 361.621 541.049 361.766 541.929 361.676L542.072 361.667C545.052 361.471 547.691 364.698 547.965 368.869C548.239 373.041 546.046 376.58 543.066 376.776C542.41 376.817 541.755 376.698 541.155 376.429C540.108 376.002 538.98 375.807 537.851 375.86C536.721 375.912 535.616 376.209 534.612 376.732C533.768 377.176 532.839 377.438 531.887 377.501C530.935 377.563 529.98 377.425 529.084 377.095C528.03 376.718 526.907 376.572 525.791 376.667C524.676 376.763 523.594 377.097 522.619 377.648C522.064 377.984 521.438 378.183 520.792 378.23C517.812 378.426 515.174 375.204 514.899 371.033C514.772 369.417 515.053 367.795 515.716 366.317Z" fill="#F2F2F2"/>
<path opacity="0.03" d="M524.509 376.841C526.047 376.44 527.67 376.509 529.169 377.04C530.065 377.367 531.019 377.505 531.972 377.445C532.934 377.381 533.873 377.113 534.724 376.658C535.728 376.137 536.833 375.841 537.963 375.79C539.092 375.739 540.22 375.933 541.267 376.361C541.864 376.63 542.518 376.749 543.172 376.708C545.82 376.534 547.85 373.717 548.078 370.168C547.524 369.815 547.042 369.36 546.657 368.828C544.944 366.423 542.434 364.977 539.753 365.153C537.071 365.329 534.782 367.075 533.386 369.65C532.971 370.433 532.359 371.094 531.612 371.569C530.864 372.044 530.006 372.316 529.122 372.359L529.05 372.364C526.966 372.501 525.236 374.315 524.509 376.841Z" fill="#00095E"/>
<path d="M295.358 38.1905L304.313 43.0692L298.482 33.9344C299.879 32.66 301.661 31.8879 303.546 31.74L303.684 31.7309C304.281 31.7034 304.874 31.6198 305.455 31.4811L308.485 33.1377L307.092 30.9512C309.104 30.0921 310.795 28.6199 311.923 26.744L317.343 29.7214L313.666 23.9511C316.466 20.0942 320.421 17.5837 324.937 17.2867C330.35 16.9308 335.382 19.8338 338.825 24.6526C339.847 26.0963 341.233 27.2433 342.841 27.9769C344.45 28.7105 346.224 29.0045 347.983 28.829L348.27 28.8101C354.247 28.4171 359.535 34.876 360.085 43.2412C360.635 51.6064 356.238 58.7022 350.262 59.0952C348.949 59.1774 347.635 58.9376 346.435 58.3967C344.335 57.5427 342.076 57.1546 339.812 57.2594C337.548 57.3641 335.333 57.9592 333.322 59.0034C331.624 59.9052 329.755 60.439 327.837 60.5699C325.919 60.7008 323.994 60.4259 322.19 59.7632C320.077 59.0073 317.826 58.7145 315.59 58.9047C313.355 59.0948 311.186 59.7635 309.231 60.8654C308.118 61.543 306.86 61.944 305.56 62.0348C299.584 62.4277 294.296 55.9688 293.745 47.6036C293.486 44.3801 294.04 41.1431 295.358 38.1905Z" fill="#F2F2F2"/>
<path opacity="0.03" d="M312.986 59.285C316.069 58.4886 319.319 58.6269 322.323 59.6822C324.125 60.3514 326.048 60.6322 327.966 60.5061C329.883 60.3799 331.753 59.8498 333.452 58.9504C335.463 57.9037 337.677 57.3072 339.941 57.2025C342.206 57.0977 344.466 57.4871 346.565 58.3437C347.767 58.8826 349.082 59.1221 350.397 59.0418C355.705 58.6928 359.77 53.0469 360.223 45.927C359.11 45.2251 358.145 44.3128 357.381 43.2412C353.939 38.4278 348.906 35.5249 343.494 35.8808C338.082 36.2367 333.519 39.704 330.739 44.8876C329.908 46.4536 328.686 47.7773 327.192 48.7296C325.698 49.6819 323.982 50.2303 322.213 50.3213L322.075 50.3304C317.878 50.5952 314.441 54.2218 312.986 59.285Z" fill="#00095E"/>
<path d="M8.61279 152.401L13.0759 154.836L10.1669 150.282C10.8624 149.643 11.7517 149.256 12.693 149.182L12.7593 149.178C13.0575 149.162 13.3539 149.12 13.6451 149.053L15.1539 149.876L14.4619 148.811C15.466 148.383 16.3096 147.649 16.8724 146.713L19.5743 148.202L17.7197 145.329C18.3507 144.391 19.1828 143.606 20.1554 143.031C21.128 142.455 22.2166 142.104 23.342 142.003C26.0398 141.826 28.5501 143.272 30.2463 145.678C30.7566 146.4 31.4496 146.973 32.2541 147.339C33.0587 147.705 33.9459 147.85 34.825 147.76L34.9687 147.751C37.9485 147.555 40.587 150.782 40.8614 154.954C41.1357 159.125 38.9421 162.664 35.9623 162.86C35.3068 162.901 34.6512 162.782 34.0518 162.514C33.0045 162.086 31.8768 161.892 30.747 161.944C29.6172 161.996 28.5123 162.294 27.509 162.816C26.6642 163.26 25.7357 163.522 24.7834 163.585C23.8311 163.648 22.8763 163.51 21.9807 163.18C20.9264 162.802 19.8033 162.656 18.6877 162.751C17.5721 162.847 16.4902 163.182 15.5154 163.733C14.9606 164.068 14.3344 164.267 13.688 164.314C10.7083 164.51 8.07009 161.288 7.79577 157.117C7.66847 155.501 7.94945 153.88 8.61279 152.401Z" fill="#F2F2F2"/>
<path opacity="0.03" d="M17.4055 162.925C18.9439 162.524 20.5671 162.593 22.0658 163.124C22.962 163.452 23.9163 163.589 24.8685 163.529C25.8217 163.462 26.7501 163.194 27.593 162.744C28.5971 162.223 29.7021 161.927 30.8318 161.876C31.9615 161.825 33.089 162.02 34.1361 162.447C34.7336 162.716 35.3874 162.835 36.0411 162.794C38.6892 162.62 40.7192 159.803 40.9467 156.254C40.393 155.901 39.9109 155.446 39.526 154.914C37.8133 152.509 35.303 151.063 32.6218 151.239C29.9405 151.415 27.6512 153.161 26.2549 155.736C25.8419 156.515 25.2348 157.173 24.4926 157.647C23.7504 158.121 22.8982 158.396 22.0189 158.443L21.947 158.448C19.8629 158.585 18.1333 160.399 17.4055 162.925Z" fill="#00095E"/>
</g>
<defs>
<clipPath id="clip0_58_594">
<rect width="589" height="373" fill="white" transform="matrix(-0.997845 0.0656179 0.0656179 0.997845 587.73 0)"/>
</clipPath>
</defs>
</svg>
